<svg width="327" height="56" viewBox="0 0 327 56" fill="none" xmlns="http://www.w3.org/2000/svg">
<path d="M2.60942 5.928H2.28942L0.881417 4.52V4.22133L2.28942 2.824H2.60942L3.88942 4.05067L5.12675 2.824H5.44675L6.90808 4.22133V4.52L5.44675 5.928H5.12675L3.88942 4.69067L2.60942 5.928ZM2.88675 12.0827C2.91519 12.3458 3.01475 12.5591 3.18542 12.7227C3.36319 12.8791 3.54808 12.9822 3.74008 13.032C3.93208 13.0818 4.14897 13.1102 4.39075 13.1173C4.63253 13.1173 4.79964 13.1102 4.89208 13.096C4.98453 13.0818 5.05919 13.0676 5.11608 13.0533L4.74275 10.792C4.70008 10.5289 4.52942 10.4151 4.23075 10.4507C3.81831 10.5076 3.47697 10.6747 3.20675 10.952C2.93653 11.2293 2.82986 11.6062 2.88675 12.0827ZM8.47608 17C8.03519 17 7.64053 16.936 7.29208 16.808C6.94364 16.68 6.65919 16.5164 6.43875 16.3173C6.21831 16.1182 6.02275 15.8693 5.85208 15.5707C5.68142 15.2649 5.55342 14.9733 5.46808 14.696C5.38275 14.4187 5.30453 14.1022 5.23342 13.7467L3.60142 16.424H3.50542C3.44853 16.424 3.36675 16.4169 3.26008 16.4027C3.15342 16.3813 3.03253 16.3564 2.89742 16.328C2.76231 16.2996 2.62008 16.2533 2.47075 16.1893C2.32142 16.1182 2.17208 16.0364 2.02275 15.944C1.87342 15.8516 1.73119 15.7307 1.59608 15.5813C1.46097 15.4249 1.34008 15.2507 1.23342 15.0587C1.12675 14.8667 1.04142 14.632 0.977417 14.3547C0.920528 14.0773 0.892083 13.7751 0.892083 13.448L0.90275 11.88C0.90275 11.6169 0.927639 11.3751 0.977417 11.1547C1.03431 10.9342 1.11608 10.7422 1.22275 10.5787C1.33653 10.408 1.45742 10.2551 1.58542 10.12C1.71342 9.98489 1.87342 9.86756 2.06542 9.768C2.25742 9.66844 2.43519 9.58311 2.59875 9.512C2.76942 9.44089 2.97208 9.38044 3.20675 9.33067C3.44142 9.27378 3.64408 9.22756 3.81475 9.192C3.98542 9.15644 4.19519 9.12089 4.44408 9.08533L4.25208 7.912L6.67342 6.088L7.61208 11.6773C7.62631 11.7698 7.65831 11.8622 7.70808 11.9547C7.87164 12.2178 8.10275 12.3493 8.40142 12.3493H10.4281V17H8.47608ZM9.77283 20.9893L8.3755 19.5813V19.2827L9.77283 17.8853H10.0928L11.5542 19.2827V19.5813L10.0928 20.9893H9.77283ZM11.1808 17H8.94083V12.3493H11.9915C12.2262 12.3493 12.3968 12.3067 12.5035 12.2213C12.6102 12.136 12.6635 12.0258 12.6635 11.8907V10.6533H14.2208L14.2315 11.8907C14.2315 11.9404 14.2386 11.9938 14.2528 12.0507C14.3168 12.2498 14.4377 12.3493 14.6155 12.3493H17.9542V17H16.6315C15.9915 17 15.4191 16.8044 14.9142 16.4133C14.4164 16.0222 14.0822 15.5244 13.9115 14.92C13.7408 15.5244 13.4031 16.0222 12.8982 16.4133C12.3933 16.8044 11.8208 17 11.1808 17ZM20.6968 6.024H20.3768L18.9688 4.616V4.31733L20.3768 2.92H20.6968L21.9768 4.14667L23.2142 2.92H23.5342L24.9955 4.31733V4.616L23.5342 6.024H23.2142L21.9768 4.78667L20.6968 6.024ZM19.3955 17H16.4408V12.3493H18.4995C18.2364 11.1902 18.3608 10.1058 18.8728 9.096C18.9511 8.94667 19.0328 8.80089 19.1182 8.65867C19.2035 8.51644 19.3315 8.34222 19.5022 8.136C19.6799 7.92978 19.8613 7.752 20.0462 7.60267C20.2382 7.45333 20.4728 7.32533 20.7502 7.21867C21.0346 7.10489 21.3297 7.048 21.6355 7.048C22.4035 7.048 23.1608 7.368 23.9075 8.008C23.9217 8.01511 23.9324 8.02578 23.9395 8.04C23.9537 8.05422 23.9644 8.06489 23.9715 8.072C23.9857 8.07911 23.9999 8.08978 24.0142 8.104C24.1777 8.23911 24.3022 8.34578 24.3875 8.424C24.4728 8.50222 24.5831 8.62667 24.7182 8.79733C24.8604 8.96089 24.9599 9.11378 25.0168 9.256C25.0737 9.39111 25.1235 9.57244 25.1662 9.8C25.2159 10.0276 25.2195 10.2587 25.1768 10.4933C25.1413 10.728 25.0666 11.0053 24.9528 11.3253C24.8391 11.6453 24.6791 11.9867 24.4728 12.3493H28.4835V17H25.7848C25.1448 17 24.5724 16.8044 24.0675 16.4133C23.5697 16.0222 23.2355 15.5244 23.0648 14.92C22.6168 15.5813 22.0728 16.0933 21.4328 16.456C20.7928 16.8187 20.1137 17 19.3955 17ZM19.7368 10.3653C19.7368 10.5431 19.7759 10.7351 19.8542 10.9413C19.9324 11.1476 20.0213 11.3253 20.1208 11.4747C20.2204 11.6169 20.3342 11.7627 20.4622 11.912C20.5902 12.0542 20.6791 12.1502 20.7288 12.2C20.7786 12.2427 20.8177 12.2782 20.8462 12.3067L21.3902 12.232C21.7599 12.1822 22.1297 12.0862 22.4995 11.944C22.8693 11.8018 23.0542 11.6382 23.0542 11.4533C23.0542 11.0907 22.7875 10.7209 22.2542 10.344C21.7208 9.96 21.1982 9.768 20.6862 9.768C20.0533 9.768 19.7368 9.96711 19.7368 10.3653ZM26.9721 17V12.3493H29.1908C29.6245 12.3493 29.9019 12.2676 30.0227 12.104C30.1436 11.9333 30.1507 11.6844 30.0441 11.3573L28.4974 6.68533C28.3125 6.10933 28.4441 5.63289 28.8921 5.256L32.1988 2.472L33.3294 6.376L32.2414 7.144V14.152C32.2414 14.9342 31.9641 15.6062 31.4094 16.168C30.8547 16.7227 30.1863 17 29.4041 17H26.9721ZM35.7744 17L35.0278 6.312C34.9993 5.96356 35.0526 5.62933 35.1877 5.30933C35.33 4.98222 35.5362 4.70489 35.8064 4.47733L38.2491 2.472L39.3691 6.376L38.4731 7.03733L38.2597 15.112L35.7744 17ZM51.3853 7.48533H51.0652L49.6572 6.07733V5.77867L51.0652 4.38133H51.3853L52.6652 5.608L53.9026 4.38133H54.2226L55.6839 5.77867V6.07733L54.2226 7.48533H53.9026L52.6652 6.248L51.3853 7.48533ZM51.1399 23.1227C50.4359 23.1227 49.7853 23.0409 49.1879 22.8773C48.5977 22.7209 48.0892 22.5004 47.6626 22.216C47.243 21.9387 46.8768 21.608 46.5639 21.224C46.251 20.84 46.0092 20.424 45.8386 19.976C45.675 19.528 45.5613 19.0551 45.4972 18.5573C45.4404 18.0596 45.4404 17.5582 45.4972 17.0533C45.5613 16.5556 45.675 16.0578 45.8386 15.56C46.0092 15.0622 46.2261 14.5893 46.4892 14.1413H48.2386C47.9257 14.7671 47.7444 15.3324 47.6946 15.8373C47.6448 16.3351 47.7017 16.7404 47.8652 17.0533C48.0359 17.3662 48.2848 17.6258 48.6119 17.832C48.9461 18.0453 49.3052 18.1947 49.6892 18.28C50.0732 18.3653 50.4857 18.408 50.9266 18.408C51.5097 18.408 52.0217 18.3653 52.4626 18.28C52.9035 18.1947 53.2519 18.0773 53.5079 17.928C53.771 17.7787 53.9701 17.6187 54.1053 17.448C54.2475 17.2773 54.347 17.0924 54.4039 16.8933H51.9612C51.3781 16.8933 50.8661 16.7013 50.4253 16.3173C49.8919 15.848 49.6252 15.2613 49.6252 14.5573V11.5813C49.6252 10.664 49.867 9.92444 50.3506 9.36267C50.8341 8.80089 51.6093 8.52 52.6759 8.52C53.6573 8.52 54.4857 8.87911 55.1613 9.59733C55.8439 10.3084 56.2208 11.2258 56.2919 12.3493H60.2812V17H56.3132V18.8133C56.3132 19.0196 56.2955 19.2329 56.2599 19.4533C56.2244 19.6738 56.1568 19.9262 56.0573 20.2107C55.9577 20.5022 55.8297 20.7796 55.6733 21.0427C55.5168 21.3058 55.3035 21.5653 55.0332 21.8213C54.763 22.0844 54.4537 22.3084 54.1053 22.4933C53.7568 22.6782 53.3266 22.8276 52.8146 22.9413C52.3097 23.0622 51.7515 23.1227 51.1399 23.1227ZM50.9799 11.496C50.9799 11.7804 51.0866 11.9938 51.2999 12.136C51.5204 12.2782 51.7479 12.3493 51.9826 12.3493H54.2013L54.0519 12.1573C53.9524 12.0364 53.8137 11.8907 53.6359 11.72C53.4652 11.5422 53.2804 11.368 53.0813 11.1973C52.8821 11.0196 52.6688 10.8702 52.4412 10.7493C52.2208 10.6213 52.0217 10.5573 51.8439 10.5573C51.2679 10.5573 50.9799 10.8702 50.9799 11.496ZM58.7846 17V12.3493H62.1766C62.1766 12.0578 62.1126 11.752 61.9846 11.432C61.8566 11.1049 61.7144 10.8276 61.5579 10.6C61.4086 10.3724 61.2308 10.1449 61.0246 9.91733C60.8255 9.68267 60.6868 9.52978 60.6086 9.45867C60.5304 9.38756 60.4664 9.33067 60.4166 9.288L62.8486 7.37867C62.8486 7.37867 62.8806 7.42844 62.9446 7.528C63.0157 7.62756 63.101 7.76978 63.2006 7.95467C63.3072 8.13956 63.4104 8.34578 63.5099 8.57333C63.6095 8.80089 63.6948 9.06756 63.7659 9.37333C63.837 9.672 63.8726 9.96 63.8726 10.2373L63.8832 14.152C63.8832 14.9342 63.6024 15.6062 63.0406 16.168C62.4859 16.7227 61.8175 17 61.0352 17H58.7846ZM63.0939 6.06667L59.7872 8.56267L59.7766 7.51733L61.1526 6.48267L60.8219 6.344C60.5944 6.25867 60.3668 6.09511 60.1392 5.85333C59.9117 5.61156 59.7979 5.33778 59.7979 5.032C59.7979 4.71911 60.029 4.31733 60.4912 3.82667C60.8041 3.48533 61.1312 3.31467 61.4726 3.31467C61.6148 3.31467 61.7606 3.35022 61.9099 3.42133C62.0592 3.48533 62.1837 3.55644 62.2832 3.63467C62.3828 3.71289 62.4788 3.80533 62.5712 3.912C62.6708 4.01867 62.7348 4.09333 62.7632 4.136C62.7988 4.17867 62.8237 4.21067 62.8379 4.232L61.9739 4.616L61.8993 4.50933C61.8495 4.43822 61.7855 4.36 61.7072 4.27467C61.6361 4.18933 61.5721 4.13244 61.5152 4.104C61.3872 4.03289 61.2521 4.01156 61.1099 4.04C60.9677 4.06133 60.8432 4.12533 60.7366 4.232C60.6441 4.34578 60.6406 4.456 60.7259 4.56267C60.8184 4.66933 60.9713 4.76178 61.1846 4.84C61.8104 5.06756 62.4468 5.12444 63.0939 5.01067V6.06667ZM66.9619 17L66.2153 6.312C66.1868 5.96356 66.2401 5.62933 66.3752 5.30933C66.5175 4.98222 66.7237 4.70489 66.9939 4.47733L69.4366 2.472L70.5566 6.376L69.6606 7.03733L69.4472 15.112L66.9619 17ZM76.1902 17H75.2515C74.7253 17 74.2453 16.872 73.8115 16.616C73.3777 16.3529 73.0435 16.0044 72.8088 15.5707C72.6026 15.1796 72.4639 14.7671 72.3928 14.3333C72.3288 13.8924 72.3324 13.4551 72.4035 13.0213C72.4817 12.5804 72.5777 12.1787 72.6915 11.816C72.8124 11.4462 72.9653 11.0587 73.1502 10.6533H74.1422C74.1351 10.6747 74.1279 10.7067 74.1208 10.7493C74.1137 10.792 74.1031 10.8738 74.0888 10.9947C74.0746 11.1084 74.0711 11.2187 74.0782 11.3253C74.0853 11.432 74.1066 11.5493 74.1422 11.6773C74.1848 11.8053 74.2417 11.9191 74.3128 12.0187C74.3911 12.1111 74.5048 12.1893 74.6542 12.2533C74.8035 12.3173 74.9813 12.3493 75.1875 12.3493H78.1635L77.4062 7.92267L79.8275 6.088L80.7768 11.688C80.7911 11.7733 80.8195 11.8587 80.8622 11.944C81.0115 12.2142 81.2462 12.3493 81.5662 12.3493H83.5928V17H81.6302C80.9902 17 80.4177 16.808 79.9128 16.424C79.4151 16.04 79.0808 15.5458 78.9102 14.9413C78.7395 15.5458 78.4017 16.04 77.8968 16.424C77.3991 16.808 76.8302 17 76.1902 17ZM85.8944 17H82.0971V12.3493H85.8411C86.5237 12.3493 87.1175 12.3209 87.6224 12.264C88.1344 12.2 88.5113 12.1431 88.7531 12.0933C89.002 12.0364 89.2189 11.9476 89.4037 11.8267C89.5886 11.6987 89.6917 11.6169 89.7131 11.5813C89.7415 11.5458 89.7913 11.4711 89.8624 11.3573C89.8126 11.3289 89.578 11.1973 89.1584 10.9627C88.746 10.7209 88.3833 10.5182 88.0704 10.3547C87.7575 10.184 87.3877 10.0204 86.9611 9.864C86.5415 9.70044 86.2002 9.61867 85.9371 9.61867C85.7451 9.61867 85.578 9.63289 85.4358 9.66133C84.8313 9.768 84.6073 10.0773 84.7637 10.5893C84.8491 10.7742 84.8917 10.8667 84.8917 10.8667L84.0811 11.4533L83.6651 10.7387C83.5086 10.4613 83.4269 10.1627 83.4197 9.84267C83.4126 9.51556 83.4837 9.20978 83.6331 8.92533L83.7077 8.78667C83.7575 8.69422 83.7966 8.61956 83.8251 8.56267C83.8606 8.49867 83.9175 8.40622 83.9957 8.28533C84.074 8.15733 84.1451 8.05067 84.2091 7.96533C84.2731 7.87289 84.3549 7.76622 84.4544 7.64533C84.554 7.51733 84.65 7.40711 84.7424 7.31467C84.8349 7.22222 84.9415 7.12978 85.0624 7.03733C85.1833 6.93778 85.3042 6.85956 85.4251 6.80267C85.546 6.73867 85.6775 6.68889 85.8198 6.65333C85.9691 6.61067 86.1149 6.58933 86.2571 6.58933C86.5984 6.58933 86.9362 6.66044 87.2704 6.80267C87.5406 6.91644 87.9175 7.09067 88.4011 7.32533C88.8917 7.56 89.2615 7.73067 89.5104 7.83733C90.5984 8.29244 91.8038 8.52 93.1264 8.52H94.1184L93.2118 11.2827L93.0518 11.2613C92.9451 11.2471 92.7958 11.2756 92.6038 11.3467C92.4118 11.4178 92.202 11.528 91.9744 11.6773C91.754 11.8267 91.5051 12.0933 91.2277 12.4773C90.9575 12.8613 90.7051 13.3342 90.4704 13.896C90.4277 13.9956 90.3709 14.1342 90.2997 14.312C90.1717 14.6249 90.0722 14.8596 90.0011 15.016C89.9371 15.1653 89.8375 15.3573 89.7024 15.592C89.5673 15.8196 89.4358 15.9902 89.3077 16.104C89.1869 16.2107 89.0197 16.3351 88.8064 16.4773C88.5931 16.6124 88.3549 16.712 88.0918 16.776C87.8286 16.8329 87.5122 16.8862 87.1424 16.936C86.7797 16.9787 86.3637 17 85.8944 17ZM102.453 5.928H102.133L100.725 4.52V4.22133L102.133 2.824H102.453L103.733 4.05067L104.97 2.824H105.291L106.752 4.22133V4.52L105.291 5.928H104.97L103.733 4.69067L102.453 5.928ZM102.73 12.0827C102.759 12.3458 102.859 12.5591 103.029 12.7227C103.207 12.8791 103.392 12.9822 103.584 13.032C103.776 13.0818 103.993 13.1102 104.234 13.1173C104.476 13.1173 104.643 13.1102 104.736 13.096C104.828 13.0818 104.903 13.0676 104.96 13.0533L104.587 10.792C104.544 10.5289 104.373 10.4151 104.075 10.4507C103.662 10.5076 103.321 10.6747 103.05 10.952C102.78 11.2293 102.674 11.6062 102.73 12.0827ZM108.32 17C107.879 17 107.484 16.936 107.136 16.808C106.787 16.68 106.503 16.5164 106.282 16.3173C106.062 16.1182 105.866 15.8693 105.696 15.5707C105.525 15.2649 105.397 14.9733 105.312 14.696C105.226 14.4187 105.148 14.1022 105.077 13.7467L103.445 16.424H103.349C103.292 16.424 103.21 16.4169 103.104 16.4027C102.997 16.3813 102.876 16.3564 102.741 16.328C102.606 16.2996 102.464 16.2533 102.314 16.1893C102.165 16.1182 102.016 16.0364 101.866 15.944C101.717 15.8516 101.575 15.7307 101.44 15.5813C101.305 15.4249 101.184 15.2507 101.077 15.0587C100.971 14.8667 100.885 14.632 100.821 14.3547C100.764 14.0773 100.736 13.7751 100.736 13.448L100.747 11.88C100.747 11.6169 100.771 11.3751 100.821 11.1547C100.878 10.9342 100.96 10.7422 101.066 10.5787C101.18 10.408 101.301 10.2551 101.429 10.12C101.557 9.98489 101.717 9.86756 101.909 9.768C102.101 9.66844 102.279 9.58311 102.442 9.512C102.613 9.44089 102.816 9.38044 103.05 9.33067C103.285 9.27378 103.488 9.22756 103.658 9.192C103.829 9.15644 104.039 9.12089 104.288 9.08533L104.096 7.912L106.517 6.088L107.456 11.6773C107.47 11.7698 107.502 11.8622 107.552 11.9547C107.715 12.2178 107.947 12.3493 108.245 12.3493H110.272V17H108.32ZM112.006 17H108.785V12.3493H112.529C113.211 12.3493 113.805 12.3209 114.31 12.264C114.822 12.2 115.199 12.1431 115.441 12.0933C115.689 12.0364 115.906 11.9476 116.091 11.8267C116.276 11.6987 116.379 11.6169 116.401 11.5813C116.429 11.5458 116.479 11.4711 116.55 11.3573C116.5 11.3289 116.265 11.1973 115.846 10.9627C115.433 10.7209 115.071 10.5182 114.758 10.3547C114.445 10.184 114.075 10.0204 113.649 9.864C113.229 9.70044 112.888 9.61867 112.625 9.61867C112.433 9.61867 112.265 9.63289 112.123 9.66133C111.519 9.768 111.295 10.0773 111.451 10.5893C111.537 10.7742 111.579 10.8667 111.579 10.8667L110.769 11.4533L110.353 10.7387C110.196 10.4613 110.114 10.1627 110.107 9.84267C110.1 9.51556 110.171 9.20978 110.321 8.92533L110.395 8.78667C110.445 8.69422 110.484 8.61956 110.513 8.56267C110.548 8.49867 110.605 8.40622 110.683 8.28533C110.761 8.15733 110.833 8.05067 110.897 7.96533C110.961 7.87289 111.042 7.76622 111.142 7.64533C111.241 7.51733 111.337 7.40711 111.43 7.31467C111.522 7.22222 111.629 7.12978 111.75 7.03733C111.871 6.93778 111.992 6.85956 112.113 6.80267C112.233 6.73867 112.365 6.68889 112.507 6.65333C112.657 6.61067 112.802 6.58933 112.945 6.58933C113.286 6.58933 113.624 6.66044 113.958 6.80267C114.228 6.91644 114.605 7.09067 115.089 7.32533C115.579 7.56 115.949 7.73067 116.198 7.83733C117.286 8.29244 118.491 8.52 119.814 8.52L120.678 8.50933L119.899 11.2827L119.729 11.2613C119.615 11.2471 119.444 11.2827 119.217 11.368C118.996 11.4462 118.776 11.5778 118.555 11.7627C118.84 12.1467 119.377 12.3422 120.166 12.3493H123.611V17H119.377C118.737 17 118.168 16.8116 117.67 16.4347C117.179 16.0578 116.841 15.5636 116.657 14.952C116.465 15.3004 116.251 15.5956 116.017 15.8373C115.789 16.072 115.497 16.2818 115.142 16.4667C114.786 16.6516 114.349 16.7867 113.83 16.872C113.318 16.9573 112.71 17 112.006 17ZM121.872 20.9893H121.552L120.144 19.5813V19.2827L121.552 17.8853H121.872L123.152 19.112L124.39 17.8853H124.71L126.171 19.2827V19.5813L124.71 20.9893H124.39L123.152 19.752L121.872 20.9893ZM124.368 17H122.128V12.3493H125.179C125.414 12.3493 125.584 12.3067 125.691 12.2213C125.798 12.136 125.851 12.0258 125.851 11.8907V10.6533H127.408L127.419 11.8907C127.419 11.9404 127.426 11.9938 127.44 12.0507C127.504 12.2498 127.625 12.3493 127.803 12.3493H131.142V17H129.819C129.179 17 128.607 16.8044 128.102 16.4133C127.604 16.0222 127.27 15.5244 127.099 14.92C126.928 15.5244 126.591 16.0222 126.086 16.4133C125.581 16.8044 125.008 17 124.368 17ZM132.135 17H129.628V12.3493H131.964C132.327 12.3209 132.558 12.2249 132.658 12.0613C132.764 11.8978 132.761 11.6631 132.647 11.3573L131.122 6.71733C130.923 6.10578 131.043 5.62222 131.484 5.26667L134.812 2.472L135.932 6.36533L134.855 7.144L134.866 11.9653C134.866 12.008 134.873 12.0507 134.887 12.0933C134.944 12.264 135.047 12.3493 135.196 12.3493H138.823V17H137.255C136.615 17 136.043 16.808 135.538 16.424C135.04 16.0329 134.706 15.5351 134.535 14.9307C134.407 15.5138 134.144 16.0044 133.746 16.4027C133.355 16.8009 132.818 17 132.135 17ZM146.148 14.9413L144.868 17.3947L144.334 17.1067C143.979 16.9147 143.481 16.6871 142.841 16.424C142.208 16.1609 141.607 15.9582 141.039 15.816C140.932 16.1431 140.694 16.424 140.324 16.6587C139.961 16.8933 139.52 17.0071 139.001 17H137.316V12.3493H140.036C139.844 11.5884 140.182 10.6213 141.049 9.448C141.554 8.76533 141.981 8.28889 142.329 8.01867C142.685 7.74844 143.118 7.61333 143.63 7.61333C143.936 7.61333 144.221 7.68089 144.484 7.816C144.754 7.95111 144.985 8.13244 145.177 8.36C145.369 8.58044 145.558 8.83289 145.742 9.11733C145.927 9.39467 146.094 9.68267 146.244 9.98133C146.393 10.28 146.557 10.5716 146.734 10.856C146.919 11.1333 147.101 11.3858 147.278 11.6133C147.463 11.8338 147.68 12.0116 147.929 12.1467C148.178 12.2818 148.445 12.3493 148.729 12.3493H150.446V17H148.985C148.338 17 147.748 16.8044 147.214 16.4133C146.681 16.0222 146.326 15.5316 146.148 14.9413ZM141.839 11.496C141.839 11.7804 141.945 11.9938 142.158 12.136C142.379 12.2782 142.606 12.3493 142.841 12.3493H145.06L144.676 11.9013C144.42 11.6027 144.093 11.304 143.694 11.0053C143.303 10.7067 142.969 10.5573 142.692 10.5573C142.123 10.5573 141.839 10.8702 141.839 11.496ZM148.941 17V12.3493H151.16C151.593 12.3493 151.871 12.2676 151.991 12.104C152.112 11.9333 152.119 11.6844 152.013 11.3573L150.466 6.68533C150.281 6.10933 150.413 5.63289 150.861 5.256L154.168 2.472L155.298 6.376L154.21 7.144V14.152C154.21 14.9342 153.933 15.6062 153.378 16.168C152.823 16.7227 152.155 17 151.373 17H148.941ZM160.634 17C159.745 17 158.988 16.6871 158.362 16.0613C157.736 15.4356 157.423 14.6782 157.423 13.7893V5.224L160.975 2.472L160.965 11.8907C160.965 11.9404 160.972 11.9938 160.986 12.0507C161.057 12.2498 161.182 12.3493 161.359 12.3493H163.706V17H160.634ZM163.203 20.968L161.806 19.56V19.2613L163.203 17.864H163.523L164.985 19.2613V19.56L163.523 20.968H163.203ZM162.222 17V12.3493H165.614C165.614 12.0578 165.55 11.752 165.422 11.432C165.294 11.1049 165.152 10.8276 164.995 10.6C164.846 10.3724 164.668 10.1449 164.462 9.91733C164.263 9.68267 164.124 9.52978 164.046 9.45867C163.968 9.38756 163.904 9.33067 163.854 9.288L166.286 7.37867C166.286 7.37867 166.318 7.42844 166.382 7.528C166.453 7.62756 166.539 7.76978 166.638 7.95467C166.745 8.13956 166.848 8.34578 166.947 8.57333C167.047 8.80089 167.132 9.06756 167.203 9.37333C167.275 9.672 167.31 9.96 167.31 10.2373L167.321 14.152C167.321 14.9342 167.04 15.6062 166.478 16.168C165.923 16.7227 165.255 17 164.473 17H162.222ZM178.265 13.416L173.283 17V15.3787L175.225 13.9173L174.99 13.8C174.841 13.7147 174.627 13.576 174.35 13.384C174.073 13.1849 173.813 12.9716 173.571 12.744C173.465 12.6444 173.386 12.5556 173.337 12.4773C173.294 12.392 173.283 12.2818 173.305 12.1467C173.326 12.0116 173.397 11.8587 173.518 11.688L174.542 10.2053C174.613 10.1129 174.652 10.0596 174.659 10.0453C174.674 10.0311 174.73 9.97422 174.83 9.87467C174.93 9.77511 175.018 9.70756 175.097 9.672C175.182 9.62933 175.299 9.58667 175.449 9.544C175.605 9.50133 175.772 9.48 175.95 9.48C176.156 9.48 176.362 9.52978 176.569 9.62933C176.782 9.72178 176.96 9.82489 177.102 9.93867C177.251 10.0524 177.394 10.1876 177.529 10.344C177.671 10.4933 177.763 10.6 177.806 10.664C177.849 10.7209 177.881 10.7671 177.902 10.8027L176.665 11.3467L176.558 11.1973C176.487 11.0978 176.394 10.9876 176.281 10.8667C176.174 10.7387 176.082 10.6533 176.003 10.6107C175.826 10.5111 175.634 10.4791 175.427 10.5147C175.221 10.5502 175.047 10.6427 174.905 10.792C174.77 10.9484 174.762 11.1049 174.883 11.2613C175.011 11.4178 175.228 11.5529 175.534 11.6667C176.423 11.9938 177.333 12.0756 178.265 11.912V13.416ZM180.743 17L179.997 6.312C179.968 5.96356 180.021 5.62933 180.156 5.30933C180.299 4.98222 180.505 4.70489 180.775 4.47733L183.218 2.472L184.338 6.376L183.442 7.03733L183.228 15.112L180.743 17ZM186.857 23.0587C186.267 23.0587 185.097 22.7316 183.347 22.0773C182.082 21.5796 181.449 21.3307 181.449 21.3307V20.7227C182.316 20.552 183.305 20.2 184.414 19.6667C185.523 19.1404 186.473 18.568 187.262 17.9493C188.051 17.3307 188.446 16.8258 188.446 16.4347C188.446 15.9298 187.945 15.1618 186.942 14.1307C186.48 13.6898 186.249 13.4693 186.249 13.4693L188.318 10.0773L188.446 10.1733C188.539 10.2373 188.652 10.344 188.787 10.4933C188.93 10.6356 189.086 10.8098 189.257 11.016C189.427 11.2222 189.598 11.4818 189.769 11.7947C189.939 12.1076 190.092 12.4453 190.227 12.808C190.37 13.1707 190.483 13.6009 190.569 14.0987C190.661 14.5964 190.707 15.1156 190.707 15.656C190.707 16.104 190.651 16.6373 190.537 17.256C190.423 17.8747 190.252 18.5218 190.025 19.1973C189.797 19.8729 189.534 20.4987 189.235 21.0747C188.937 21.6507 188.578 22.1236 188.158 22.4933C187.739 22.8702 187.305 23.0587 186.857 23.0587ZM198.67 5.032L197.272 3.624V3.32533L198.67 1.928H198.99L200.451 3.32533V3.624L198.99 5.032H198.67ZM196.878 17H195.939C195.413 17 194.933 16.872 194.499 16.616C194.065 16.3529 193.731 16.0044 193.496 15.5707C193.29 15.1796 193.151 14.7671 193.08 14.3333C193.016 13.8924 193.02 13.4551 193.091 13.0213C193.169 12.5804 193.265 12.1787 193.379 11.816C193.5 11.4462 193.653 11.0587 193.838 10.6533H194.83C194.823 10.6747 194.815 10.7067 194.808 10.7493C194.801 10.792 194.791 10.8738 194.776 10.9947C194.762 11.1084 194.759 11.2187 194.766 11.3253C194.773 11.432 194.794 11.5493 194.83 11.6773C194.872 11.8053 194.929 11.9191 195 12.0187C195.079 12.1111 195.192 12.1893 195.342 12.2533C195.491 12.3173 195.669 12.3493 195.875 12.3493H198.851L198.094 7.92267L200.515 6.088L201.464 11.688C201.479 11.7733 201.507 11.8587 201.55 11.944C201.699 12.2142 201.934 12.3493 202.254 12.3493H204.28V17H202.318C201.678 17 201.105 16.808 200.6 16.424C200.103 16.04 199.768 15.5458 199.598 14.9413C199.427 15.5458 199.089 16.04 198.584 16.424C198.087 16.808 197.518 17 196.878 17ZM205.718 17H202.785V12.3493H206.945C206.802 11.9867 206.582 11.6738 206.283 11.4107C205.985 11.1476 205.672 11.016 205.345 11.016V9.23467L205.473 9.11733C205.551 9.03911 205.682 8.94311 205.867 8.82933C206.052 8.71556 206.265 8.60533 206.507 8.49867C206.749 8.38489 207.058 8.28889 207.435 8.21067C207.819 8.13244 208.217 8.09333 208.63 8.09333C209.192 8.09333 209.675 8.136 210.081 8.22133C210.493 8.30667 210.813 8.42044 211.041 8.56267C211.268 8.69778 211.442 8.86133 211.563 9.05333C211.684 9.24533 211.745 9.448 211.745 9.66133C211.752 9.86756 211.727 10.0844 211.67 10.312C211.613 10.5396 211.531 10.7564 211.425 10.9627C211.325 11.1689 211.211 11.368 211.083 11.56C210.955 11.752 210.838 11.912 210.731 12.04C210.632 12.168 210.539 12.2711 210.454 12.3493H214.817V17H211.169C210.529 17 209.956 16.8044 209.451 16.4133C208.953 16.0222 208.619 15.5244 208.449 14.92C208.278 15.5244 207.94 16.0222 207.435 16.4133C206.93 16.8044 206.358 17 205.718 17ZM213.316 17V12.3493H215.535C215.968 12.3493 216.246 12.2676 216.366 12.104C216.487 11.9333 216.494 11.6844 216.388 11.3573L214.841 6.68533C214.656 6.10933 214.788 5.63289 215.236 5.256L218.543 2.472L219.673 6.376L218.585 7.144V14.152C218.585 14.9342 218.308 15.6062 217.753 16.168C217.198 16.7227 216.53 17 215.748 17H213.316ZM222.118 17L221.372 6.312C221.343 5.96356 221.396 5.62933 221.531 5.30933C221.674 4.98222 221.88 4.70489 222.15 4.47733L224.593 2.472L225.713 6.376L224.817 7.03733L224.603 15.112L222.118 17ZM233.516 5.928H233.196L231.788 4.52V4.22133L233.196 2.824H233.516L234.796 4.05067L236.033 2.824H236.353L237.814 4.22133V4.52L236.353 5.928H236.033L234.796 4.69067L233.516 5.928ZM233.793 12.0827C233.821 12.3458 233.921 12.5591 234.092 12.7227C234.269 12.8791 234.454 12.9822 234.646 13.032C234.838 13.0818 235.055 13.1102 235.297 13.1173C235.539 13.1173 235.706 13.1102 235.798 13.096C235.891 13.0818 235.965 13.0676 236.022 13.0533L235.649 10.792C235.606 10.5289 235.436 10.4151 235.137 10.4507C234.725 10.5076 234.383 10.6747 234.113 10.952C233.843 11.2293 233.736 11.6062 233.793 12.0827ZM239.382 17C238.941 17 238.547 16.936 238.198 16.808C237.85 16.68 237.565 16.5164 237.345 16.3173C237.125 16.1182 236.929 15.8693 236.758 15.5707C236.588 15.2649 236.46 14.9733 236.374 14.696C236.289 14.4187 236.211 14.1022 236.14 13.7467L234.508 16.424H234.412C234.355 16.424 234.273 16.4169 234.166 16.4027C234.06 16.3813 233.939 16.3564 233.804 16.328C233.669 16.2996 233.526 16.2533 233.377 16.1893C233.228 16.1182 233.078 16.0364 232.929 15.944C232.78 15.8516 232.637 15.7307 232.502 15.5813C232.367 15.4249 232.246 15.2507 232.14 15.0587C232.033 14.8667 231.948 14.632 231.884 14.3547C231.827 14.0773 231.798 13.7751 231.798 13.448L231.809 11.88C231.809 11.6169 231.834 11.3751 231.884 11.1547C231.941 10.9342 232.022 10.7422 232.129 10.5787C232.243 10.408 232.364 10.2551 232.492 10.12C232.62 9.98489 232.78 9.86756 232.972 9.768C233.164 9.66844 233.341 9.58311 233.505 9.512C233.676 9.44089 233.878 9.38044 234.113 9.33067C234.348 9.27378 234.55 9.22756 234.721 9.192C234.892 9.15644 235.101 9.12089 235.35 9.08533L235.158 7.912L237.58 6.088L238.518 11.6773C238.533 11.7698 238.565 11.8622 238.614 11.9547C238.778 12.2178 239.009 12.3493 239.308 12.3493H241.334V17H239.382ZM250.866 14.9307L250.855 15.144C250.855 15.2862 250.827 15.4604 250.77 15.6667C250.713 15.8729 250.635 16.0791 250.535 16.2853C250.436 16.4844 250.272 16.6551 250.044 16.7973C249.817 16.9396 249.547 17.0107 249.234 17.0107C249.02 17.0107 248.821 16.9716 248.636 16.8933C248.459 16.8151 248.313 16.7191 248.199 16.6053C248.085 16.4916 247.982 16.3564 247.89 16.2C247.797 16.0364 247.73 15.8907 247.687 15.7627C247.644 15.6347 247.605 15.4996 247.57 15.3573C247.541 15.2151 247.524 15.1191 247.516 15.0693C247.509 15.0196 247.506 14.9804 247.506 14.952L247.484 15.1653C247.463 15.3076 247.417 15.4782 247.346 15.6773C247.275 15.8764 247.182 16.0791 247.068 16.2853C246.955 16.4844 246.784 16.6551 246.556 16.7973C246.329 16.9396 246.066 17.0107 245.767 17.0107C245.454 17.0107 245.184 16.936 244.956 16.7867C244.729 16.6373 244.565 16.4702 244.466 16.2853C244.366 16.1004 244.288 15.8907 244.231 15.656C244.174 15.4142 244.142 15.2471 244.135 15.1547C244.135 15.0622 244.135 14.9876 244.135 14.9307L244.114 15.0373C244.107 15.1156 244.078 15.2151 244.028 15.336C243.986 15.4569 243.929 15.592 243.858 15.7413C243.787 15.8907 243.68 16.04 243.538 16.1893C243.396 16.3316 243.232 16.4631 243.047 16.584C242.869 16.7049 242.638 16.8044 242.354 16.8827C242.069 16.9609 241.756 17 241.415 17H239.847V12.3493H242.578C242.812 12.3493 242.983 12.3102 243.09 12.232C243.196 12.1467 243.25 12.0364 243.25 11.9013V10.6533H244.807L244.796 10.8347C244.789 10.9484 244.796 11.0907 244.818 11.2613C244.839 11.4249 244.875 11.592 244.924 11.7627C244.981 11.9262 245.077 12.0684 245.212 12.1893C245.355 12.3031 245.529 12.36 245.735 12.36C245.956 12.36 246.14 12.2996 246.29 12.1787C246.439 12.0507 246.542 11.912 246.599 11.7627C246.656 11.6133 246.692 11.4427 246.706 11.2507C246.727 11.0516 246.734 10.9164 246.727 10.8453C246.727 10.7671 246.724 10.7031 246.716 10.6533H248.284L248.274 10.8347C248.267 10.9484 248.27 11.0907 248.284 11.2613C248.306 11.4249 248.341 11.592 248.391 11.7627C248.448 11.9262 248.544 12.0684 248.679 12.1893C248.821 12.3031 248.996 12.36 249.202 12.36C249.55 12.36 249.81 12.2142 249.98 11.9227C250.151 11.624 250.222 11.3502 250.194 11.1013C250.165 10.8453 250.162 10.696 250.183 10.6533H251.751V11.9013C251.758 12.1929 251.982 12.3422 252.423 12.3493H255.143V17H253.596C253.127 17 252.711 16.9253 252.348 16.776C251.993 16.6267 251.726 16.4631 251.548 16.2853C251.371 16.1004 251.221 15.8907 251.1 15.656C250.987 15.4142 250.919 15.2471 250.898 15.1547C250.884 15.0622 250.873 14.9876 250.866 14.9307ZM254.396 20.9787H254.076L252.668 19.5707V19.272L254.076 17.8747H254.396L255.676 19.1013L256.913 17.8747H257.233L258.694 19.272V19.5707L257.233 20.9787H256.913L255.676 19.7413L254.396 20.9787ZM256.806 17H253.66V12.3493H258.78L258.097 8.488L260.22 6.888L261.062 11.6773C261.076 11.7698 261.108 11.8622 261.158 11.9547C261.322 12.2178 261.553 12.3493 261.852 12.3493H264.529V17H262.246C261.606 17 261.034 16.808 260.529 16.424C260.031 16.04 259.697 15.5458 259.526 14.9413C259.356 15.5458 259.018 16.04 258.513 16.424C258.015 16.808 257.446 17 256.806 17ZM264.763 9.448L263.365 8.04V7.74133L264.763 6.344H265.083L266.544 7.74133V8.04L265.083 9.448H264.763ZM265.275 17H263.035V12.3493H266.085C266.32 12.3493 266.491 12.3067 266.597 12.2213C266.704 12.136 266.757 12.0258 266.757 11.8907V10.6533H268.315L268.325 11.8907C268.325 11.9404 268.332 11.9938 268.347 12.0507C268.411 12.2498 268.531 12.3493 268.709 12.3493H272.048V17H270.725C270.085 17 269.513 16.8044 269.008 16.4133C268.51 16.0222 268.176 15.5244 268.005 14.92C267.835 15.5244 267.497 16.0222 266.992 16.4133C266.487 16.8044 265.915 17 265.275 17ZM270.535 17V12.3493H273.916C274.385 12.3493 274.751 12.2818 275.015 12.1467C275.278 12.0044 275.409 11.7556 275.409 11.4C275.409 11.1867 275.338 11.0018 275.196 10.8453C275.054 10.6818 274.876 10.5573 274.663 10.472C274.456 10.3796 274.207 10.3049 273.916 10.248C273.624 10.1911 273.358 10.1556 273.116 10.1413C272.881 10.12 272.632 10.1093 272.369 10.1093C272.106 10.1093 271.928 10.1129 271.836 10.12C271.743 10.12 271.672 10.1236 271.623 10.1307V6.32267C271.623 6.01689 271.711 5.73956 271.889 5.49067C272.074 5.24178 272.312 5.06756 272.604 4.968L278.001 3.25067V6.41867L274.257 7.61333L274.439 7.63467C274.552 7.656 274.702 7.70222 274.887 7.77333C275.079 7.83733 275.288 7.92267 275.516 8.02933C275.751 8.12889 275.982 8.27822 276.209 8.47733C276.437 8.67644 276.643 8.904 276.828 9.16C277.02 9.416 277.173 9.74311 277.287 10.1413C277.407 10.5396 277.468 10.9769 277.468 11.4533L277.457 14.2053C277.457 14.5396 277.407 14.8667 277.308 15.1867C277.208 15.5067 277.063 15.8053 276.871 16.0827C276.686 16.36 276.433 16.584 276.113 16.7547C275.793 16.9182 275.434 17 275.036 17H270.535ZM294.67 21.4373C293.496 22.2978 292.067 22.728 290.381 22.728C289.393 22.728 288.518 22.6036 287.758 22.3547C287.004 22.1058 286.403 21.7644 285.955 21.3307C285.507 20.8969 285.169 20.4098 284.941 19.8693C284.721 19.336 284.611 18.7564 284.611 18.1307C284.611 17.2844 284.806 16.4844 285.197 15.7307C285.589 14.9769 286.108 14.3369 286.755 13.8107C287.402 13.2844 288.131 12.8542 288.941 12.52C289.759 12.1787 290.595 11.9724 291.448 11.9013C291.278 11.6382 291.071 11.4249 290.829 11.2613C290.588 11.0907 290.339 11.0053 290.083 11.0053V9.224L290.2 9.10667C290.285 9.02844 290.421 8.936 290.605 8.82933C290.79 8.71556 291.004 8.60178 291.246 8.488C291.494 8.37422 291.807 8.27822 292.184 8.2C292.568 8.12178 292.966 8.08267 293.379 8.08267C293.941 8.08267 294.424 8.12533 294.83 8.21067C295.242 8.296 295.558 8.40978 295.779 8.552C296.006 8.69422 296.181 8.86133 296.302 9.05333C296.429 9.24533 296.493 9.448 296.493 9.66133C296.501 9.86756 296.476 10.0844 296.419 10.312C296.362 10.5396 296.28 10.7564 296.174 10.9627C296.074 11.1689 295.96 11.368 295.832 11.56C295.704 11.752 295.587 11.912 295.48 12.04C295.381 12.168 295.288 12.2711 295.203 12.3493H299.555V17H295.491C295.064 17 294.673 16.9147 294.318 16.744C293.962 16.5662 293.674 16.3529 293.453 16.104C293.233 15.8551 293.034 15.5564 292.856 15.208C292.685 14.8596 292.557 14.5502 292.472 14.28C292.394 14.0027 292.326 13.7182 292.269 13.4267C291.395 13.6044 290.68 13.9778 290.125 14.5467C289.578 15.1084 289.304 15.848 289.304 16.7653C289.304 16.9716 289.326 17.1991 289.368 17.448C289.418 17.6969 289.514 17.9778 289.656 18.2907C289.805 18.6107 289.99 18.8951 290.211 19.144C290.431 19.3929 290.737 19.6027 291.128 19.7733C291.519 19.944 291.964 20.0293 292.462 20.0293C293.215 20.0293 293.951 19.8622 294.67 19.528V21.4373ZM300.562 3.336H300.242L298.834 1.928V1.62933L300.242 0.232H300.562L301.842 1.45867L303.079 0.232H303.399L304.86 1.62933V1.928L303.399 3.336H303.079L301.842 2.09867L300.562 3.336ZM300.178 7.35733C300.178 7.64178 300.285 7.85511 300.498 7.99733C300.711 8.13244 300.939 8.2 301.181 8.2H303.399L303.015 7.76267C302.759 7.464 302.432 7.16533 302.034 6.86667C301.643 6.568 301.308 6.41867 301.031 6.41867C300.462 6.41867 300.178 6.73156 300.178 7.35733ZM298.066 17V12.3493H303.282C303.381 12.3493 303.467 12.3173 303.538 12.2533C303.609 12.1822 303.644 12.0969 303.644 11.9973C303.644 11.8978 303.609 11.8124 303.538 11.7413C303.467 11.6702 303.381 11.6347 303.282 11.6347H300.637C300.132 11.6347 299.701 11.4569 299.346 11.1013C298.99 10.7458 298.812 10.3156 298.812 9.81067V7.432C298.812 6.51467 299.054 5.77867 299.538 5.224C300.028 4.66222 300.807 4.38133 301.874 4.38133C302.912 4.38133 303.776 4.776 304.466 5.56533C305.163 6.35467 305.511 7.35733 305.511 8.57333V14.1413C305.511 14.3902 305.486 14.6427 305.437 14.8987C305.387 15.1476 305.298 15.4 305.17 15.656C305.049 15.912 304.896 16.1396 304.711 16.3387C304.526 16.5307 304.288 16.6907 303.997 16.8187C303.705 16.9396 303.378 17 303.015 17H298.066ZM310.229 10.5573C309.653 10.5573 309.365 10.8702 309.365 11.496C309.365 11.7804 309.471 11.9938 309.685 12.136C309.905 12.2782 310.136 12.3493 310.378 12.3493H312.597L312.213 11.9013C311.957 11.6027 311.63 11.304 311.232 11.0053C310.84 10.7067 310.506 10.5573 310.229 10.5573ZM312.01 22.92C311.555 23.1404 310.73 23.0658 309.536 22.696C306.72 21.7858 305.308 21.3307 305.301 21.3307V20.7227L305.941 20.5093C306.36 20.3671 306.887 20.168 307.52 19.912C308.159 19.656 308.807 19.3751 309.461 19.0693C310.115 18.7707 310.712 18.4329 311.253 18.056C311.8 17.6791 312.16 17.3271 312.33 17H310.346C309.699 17 309.148 16.7724 308.693 16.3173C308.238 15.8622 308.01 15.3111 308.01 14.664V11.5813C308.01 10.664 308.252 9.92444 308.735 9.36267C309.226 8.80089 310.005 8.52 311.071 8.52C311.719 8.52 312.309 8.68356 312.842 9.01067C313.375 9.33067 313.802 9.78222 314.122 10.3653C314.449 10.9484 314.638 11.6098 314.688 12.3493H317.568V17H314.389C314.325 18.2302 314.051 19.4569 313.568 20.68C313.084 21.9031 312.565 22.6498 312.01 22.92ZM317.782 17H316.097V12.3493H318.817C318.625 11.5813 318.963 10.6107 319.83 9.43733C320.335 8.75467 320.762 8.27822 321.11 8.008C321.466 7.73778 321.9 7.60267 322.412 7.60267C322.824 7.60267 323.222 7.72356 323.606 7.96533C324.495 8.54133 325.242 9.68978 325.846 11.4107C326.031 12.0222 326.124 12.328 326.124 12.328L323.926 16.6587L323.457 16.5093C323.137 16.4169 322.632 16.2996 321.942 16.1573C321.26 16.0151 320.552 15.8978 319.82 15.8053C319.67 16.2036 319.404 16.5022 319.02 16.7013C318.636 16.9004 318.223 17 317.782 17ZM320.62 11.496C320.62 11.7804 320.726 11.9938 320.94 12.136C321.16 12.2782 321.388 12.3493 321.622 12.3493H323.841L323.457 11.9013C323.201 11.6027 322.874 11.304 322.476 11.0053C322.085 10.7067 321.75 10.5573 321.473 10.5573C320.904 10.5573 320.62 10.8702 320.62 11.496ZM39.7969 37.928H39.4769L38.0689 36.52V36.2213L39.4769 34.824H39.7969L41.0769 36.0507L42.3142 34.824H42.6343L44.0956 36.2213V36.52L42.6343 37.928H42.3142L41.0769 36.6907L39.7969 37.928ZM40.0742 44.0827C40.1027 44.3458 40.2023 44.5591 40.3729 44.7227C40.5507 44.8791 40.7356 44.9822 40.9276 45.032C41.1196 45.0818 41.3365 45.1102 41.5782 45.1173C41.82 45.1173 41.9871 45.1102 42.0796 45.096C42.172 45.0818 42.2467 45.0676 42.3036 45.0533L41.9303 42.792C41.8876 42.5289 41.7169 42.4151 41.4183 42.4507C41.0058 42.5076 40.6645 42.6747 40.3942 42.952C40.124 43.2293 40.0174 43.6062 40.0742 44.0827ZM45.6636 49C45.2227 49 44.828 48.936 44.4796 48.808C44.1311 48.68 43.8467 48.5164 43.6262 48.3173C43.4058 48.1182 43.2102 47.8693 43.0396 47.5707C42.8689 47.2649 42.7409 46.9733 42.6556 46.696C42.5702 46.4187 42.492 46.1022 42.4209 45.7467L40.7889 48.424H40.6929C40.636 48.424 40.5542 48.4169 40.4476 48.4027C40.3409 48.3813 40.22 48.3564 40.0849 48.328C39.9498 48.2996 39.8076 48.2533 39.6582 48.1893C39.5089 48.1182 39.3596 48.0364 39.2102 47.944C39.0609 47.8516 38.9187 47.7307 38.7836 47.5813C38.6485 47.4249 38.5276 47.2507 38.4209 47.0587C38.3143 46.8667 38.2289 46.632 38.1649 46.3547C38.108 46.0773 38.0796 45.7751 38.0796 45.448L38.0903 43.88C38.0903 43.6169 38.1151 43.3751 38.1649 43.1547C38.2218 42.9342 38.3036 42.7422 38.4102 42.5787C38.524 42.408 38.6449 42.2551 38.7729 42.12C38.9009 41.9849 39.0609 41.8676 39.2529 41.768C39.4449 41.6684 39.6227 41.5831 39.7862 41.512C39.9569 41.4409 40.1596 41.3804 40.3942 41.3307C40.6289 41.2738 40.8316 41.2276 41.0022 41.192C41.1729 41.1564 41.3827 41.1209 41.6316 41.0853L41.4396 39.912L43.8609 38.088L44.7996 43.6773C44.8138 43.7698 44.8458 43.8622 44.8956 43.9547C45.0591 44.2178 45.2903 44.3493 45.5889 44.3493H47.6156V49H45.6636ZM45.8723 52.9893H45.5523L44.1443 51.5813V51.2827L45.5523 49.8853H45.8723L47.1523 51.112L48.3897 49.8853H48.7097L50.171 51.2827V51.5813L48.7097 52.9893H48.3897L47.1523 51.752L45.8723 52.9893ZM48.3683 49H46.1283V44.3493H49.179C49.4137 44.3493 49.5843 44.3067 49.691 44.2213C49.7977 44.136 49.851 44.0258 49.851 43.8907V42.6533H51.4083L51.419 43.8907C51.419 43.9404 51.4261 43.9938 51.4403 44.0507C51.5043 44.2498 51.6252 44.3493 51.803 44.3493H55.1417V49H53.819C53.179 49 52.6066 48.8044 52.1017 48.4133C51.6039 48.0222 51.2697 47.5244 51.099 46.92C50.9283 47.5244 50.5906 48.0222 50.0857 48.4133C49.5808 48.8044 49.0083 49 48.3683 49ZM53.6283 49V44.3493H62.3217V49H53.6283ZM71.8345 46.9307L71.8238 47.144C71.8238 47.2862 71.7954 47.4604 71.7385 47.6667C71.6816 47.8729 71.6034 48.0791 71.5038 48.2853C71.4043 48.4844 71.2407 48.6551 71.0132 48.7973C70.7856 48.9396 70.5154 49.0107 70.2025 49.0107C69.9892 49.0107 69.7901 48.9716 69.6052 48.8933C69.4274 48.8151 69.2816 48.7191 69.1678 48.6053C69.0541 48.4916 68.9509 48.3564 68.8585 48.2C68.7661 48.0364 68.6985 47.8907 68.6558 47.7627C68.6132 47.6347 68.5741 47.4996 68.5385 47.3573C68.5101 47.2151 68.4923 47.1191 68.4852 47.0693C68.4781 47.0196 68.4745 46.9804 68.4745 46.952L68.4532 47.1653C68.4318 47.3076 68.3856 47.4782 68.3145 47.6773C68.2434 47.8764 68.1509 48.0791 68.0372 48.2853C67.9234 48.4844 67.7527 48.6551 67.5252 48.7973C67.2976 48.9396 67.0345 49.0107 66.7358 49.0107C66.4229 49.0107 66.1527 48.936 65.9252 48.7867C65.6976 48.6373 65.5341 48.4702 65.4345 48.2853C65.3349 48.1004 65.2567 47.8907 65.1998 47.656C65.1429 47.4142 65.1109 47.2471 65.1038 47.1547C65.1038 47.0622 65.1038 46.9876 65.1038 46.9307L65.0825 47.0373C65.0754 47.1156 65.0469 47.2151 64.9972 47.336C64.9545 47.4569 64.8976 47.592 64.8265 47.7413C64.7554 47.8907 64.6487 48.04 64.5065 48.1893C64.3643 48.3316 64.2007 48.4631 64.0158 48.584C63.8381 48.7049 63.6069 48.8044 63.3225 48.8827C63.0381 48.9609 62.7252 49 62.3838 49H60.8158V44.3493H63.5465C63.7812 44.3493 63.9518 44.3102 64.0585 44.232C64.1652 44.1467 64.2185 44.0364 64.2185 43.9013V42.6533H65.7758L65.7652 42.8347C65.7581 42.9484 65.7652 43.0907 65.7865 43.2613C65.8078 43.4249 65.8434 43.592 65.8932 43.7627C65.9501 43.9262 66.0461 44.0684 66.1812 44.1893C66.3234 44.3031 66.4976 44.36 66.7038 44.36C66.9243 44.36 67.1092 44.2996 67.2585 44.1787C67.4078 44.0507 67.5109 43.912 67.5678 43.7627C67.6247 43.6133 67.6603 43.4427 67.6745 43.2507C67.6958 43.0516 67.7029 42.9164 67.6958 42.8453C67.6958 42.7671 67.6923 42.7031 67.6852 42.6533H69.2532L69.2425 42.8347C69.2354 42.9484 69.2389 43.0907 69.2532 43.2613C69.2745 43.4249 69.3101 43.592 69.3598 43.7627C69.4167 43.9262 69.5127 44.0684 69.6478 44.1893C69.7901 44.3031 69.9643 44.36 70.1705 44.36C70.5189 44.36 70.7785 44.2142 70.9492 43.9227C71.1198 43.624 71.1909 43.3502 71.1625 43.1013C71.1341 42.8453 71.1305 42.696 71.1518 42.6533H72.7198V43.9013C72.7269 44.1929 72.9509 44.3422 73.3918 44.3493H76.1118V49H74.5652C74.0958 49 73.6798 48.9253 73.3172 48.776C72.9616 48.6267 72.6949 48.4631 72.5172 48.2853C72.3394 48.1004 72.1901 47.8907 72.0692 47.656C71.9554 47.4142 71.8878 47.2471 71.8665 47.1547C71.8523 47.0622 71.8416 46.9876 71.8345 46.9307ZM74.6283 49V44.3493H78.0097C78.479 44.3493 78.8452 44.2818 79.1083 44.1467C79.3714 44.0044 79.503 43.7556 79.503 43.4C79.503 43.1867 79.4319 43.0018 79.2897 42.8453C79.1474 42.6818 78.9697 42.5573 78.7563 42.472C78.5501 42.3796 78.3012 42.3049 78.0097 42.248C77.7181 42.1911 77.4514 42.1556 77.2097 42.1413C76.975 42.12 76.7261 42.1093 76.463 42.1093C76.1999 42.1093 76.0221 42.1129 75.9297 42.12C75.8372 42.12 75.7661 42.1236 75.7163 42.1307V38.3227C75.7163 38.0169 75.8052 37.7396 75.983 37.4907C76.1679 37.2418 76.4061 37.0676 76.6977 36.968L82.095 35.2507V38.4187L78.351 39.6133L78.5323 39.6347C78.6461 39.656 78.7954 39.7022 78.9803 39.7733C79.1723 39.8373 79.3821 39.9227 79.6097 40.0293C79.8443 40.1289 80.0754 40.2782 80.303 40.4773C80.5306 40.6764 80.7368 40.904 80.9217 41.16C81.1137 41.416 81.2666 41.7431 81.3803 42.1413C81.5012 42.5396 81.5617 42.9769 81.5617 43.4533L81.551 46.2053C81.551 46.5396 81.5012 46.8667 81.4017 47.1867C81.3021 47.5067 81.1563 47.8053 80.9643 48.0827C80.7794 48.36 80.527 48.584 80.207 48.7547C79.887 48.9182 79.5279 49 79.1297 49H74.6283ZM87.922 37.0427L86.5247 35.6347V35.336L87.922 33.9387H88.242L89.7033 35.336V35.6347L88.242 37.0427H87.922ZM87.314 49C86.7878 49 86.3078 48.872 85.874 48.616C85.4402 48.3529 85.106 48.0044 84.8713 47.5707C84.1887 46.2836 84.3024 44.6444 85.2127 42.6533H86.2047C86.1976 42.6747 86.1904 42.7067 86.1833 42.7493C86.1762 42.792 86.1656 42.8738 86.1513 42.9947C86.1371 43.1084 86.1336 43.2187 86.1407 43.3253C86.1478 43.432 86.1691 43.5493 86.2047 43.6773C86.2473 43.8053 86.3042 43.9191 86.3753 44.0187C86.4536 44.1111 86.5673 44.1893 86.7167 44.2533C86.866 44.3173 87.0438 44.3493 87.25 44.3493H90.322L90.3327 44.2533C90.3398 44.1893 90.3291 44.0969 90.3007 43.976C90.2722 43.8551 90.226 43.7164 90.162 43.56C90.1051 43.3964 89.9913 43.2151 89.8207 43.016C89.65 42.8098 89.4438 42.6 89.202 42.3867C88.9602 42.1733 88.6296 41.9458 88.21 41.704C87.7904 41.4551 87.314 41.2169 86.7807 40.9893L88.0287 38.12C88.7896 38.4044 89.4544 38.8169 90.0233 39.3573C90.5993 39.8978 91.0367 40.488 91.3353 41.128C91.634 41.768 91.8509 42.4436 91.986 43.1547C92.1211 43.8587 92.1638 44.5342 92.114 45.1813C92.0713 45.8284 91.954 46.4116 91.762 46.9307C91.5913 47.528 91.2536 48.0222 90.7487 48.4133C90.2509 48.8044 89.682 49 89.042 49H87.314ZM96.8538 42.5573C96.2778 42.5573 95.9898 42.8702 95.9898 43.496C95.9898 43.7804 96.0965 43.9938 96.3098 44.136C96.5303 44.2782 96.7614 44.3493 97.0032 44.3493H99.2218L98.8378 43.9013C98.5818 43.6027 98.2547 43.304 97.8565 43.0053C97.4654 42.7067 97.1312 42.5573 96.8538 42.5573ZM98.6352 54.92C98.1801 55.1404 97.3552 55.0658 96.1605 54.696C93.3445 53.7858 91.9329 53.3307 91.9258 53.3307V52.7227L92.5658 52.5093C92.9854 52.3671 93.5116 52.168 94.1445 51.912C94.7845 51.656 95.4316 51.3751 96.0858 51.0693C96.7401 50.7707 97.3374 50.4329 97.8778 50.056C98.4254 49.6791 98.7845 49.3271 98.9552 49H96.9712C96.3241 49 95.7729 48.7724 95.3178 48.3173C94.8627 47.8622 94.6352 47.3111 94.6352 46.664V43.5813C94.6352 42.664 94.8769 41.9244 95.3605 41.3627C95.8512 40.8009 96.6298 40.52 97.6965 40.52C98.3436 40.52 98.9338 40.6836 99.4672 41.0107C100 41.3307 100.427 41.7822 100.747 42.3653C101.074 42.9484 101.263 43.6098 101.312 44.3493H104.193V49H101.014C100.95 50.2302 100.676 51.4569 100.193 52.68C99.7089 53.9031 99.1898 54.6498 98.6352 54.92ZM103.088 39.2293H102.768L101.36 37.8213V37.5227L102.768 36.1253H103.088L104.368 37.352L105.605 36.1253H105.925L107.387 37.5227V37.8213L105.925 39.2293H105.605L104.368 37.992L103.088 39.2293ZM104.187 36.7013L102.789 35.2933V34.9947L104.187 33.5973H104.507L105.968 34.9947V35.2933L104.507 36.7013H104.187ZM103.035 49V44.3493H106.427C106.427 44.0578 106.363 43.752 106.235 43.432C106.107 43.1049 105.964 42.8276 105.808 42.6C105.659 42.3724 105.481 42.1449 105.275 41.9173C105.075 41.6827 104.937 41.5298 104.859 41.4587C104.78 41.3876 104.716 41.3307 104.667 41.288L107.099 39.3787C107.099 39.3787 107.131 39.4284 107.195 39.528C107.266 39.6276 107.351 39.7698 107.451 39.9547C107.557 40.1396 107.66 40.3458 107.76 40.5733C107.859 40.8009 107.945 41.0676 108.016 41.3733C108.087 41.672 108.123 41.96 108.123 42.2373L108.133 46.152C108.133 46.9342 107.852 47.6062 107.291 48.168C106.736 48.7227 106.067 49 105.285 49H103.035ZM111.169 55.0587C110.579 55.0587 109.409 54.7316 107.66 54.0773C106.394 53.5796 105.761 53.3307 105.761 53.3307V52.7227C106.629 52.552 107.617 52.2 108.727 51.6667C109.836 51.1404 110.785 50.568 111.575 49.9493C112.364 49.3307 112.759 48.8258 112.759 48.4347C112.759 47.9298 112.257 47.1618 111.255 46.1307C110.792 45.6898 110.561 45.4693 110.561 45.4693L112.631 42.0773L112.759 42.1733C112.851 42.2373 112.965 42.344 113.1 42.4933C113.242 42.6356 113.399 42.8098 113.569 43.016C113.74 43.2222 113.911 43.4818 114.081 43.7947C114.252 44.1076 114.405 44.4453 114.54 44.808C114.682 45.1707 114.796 45.6009 114.881 46.0987C114.974 46.5964 115.02 47.1156 115.02 47.656C115.02 48.104 114.963 48.6373 114.849 49.256C114.735 49.8747 114.565 50.5218 114.337 51.1973C114.11 51.8729 113.847 52.4987 113.548 53.0747C113.249 53.6507 112.89 54.1236 112.471 54.4933C112.051 54.8702 111.617 55.0587 111.169 55.0587ZM122.022 42.1307L121.478 41.3307C121.123 40.7973 120.699 40.2818 120.209 39.784C119.725 39.2862 119.355 39.0729 119.099 39.144C118.879 39.208 118.676 39.368 118.491 39.624C118.371 39.8302 118.31 39.9333 118.31 39.9333L117.361 39.4533L118.758 35.816C118.872 35.5173 119.089 35.3324 119.409 35.2613C119.729 35.1902 119.988 35.2756 120.188 35.5173C121.204 36.8044 122.143 38.1804 123.003 39.6453C123.444 40.4489 123.665 40.8507 123.665 40.8507L122.022 42.1307ZM123.249 44.3493C123.341 44.3493 123.405 44.3138 123.441 44.2427C123.483 44.1644 123.48 44.0898 123.43 44.0187C123.217 43.72 122.815 43.2222 122.225 42.5253C121.976 42.7458 121.684 42.9733 121.35 43.208C120.995 43.464 120.728 43.6418 120.55 43.7413L120.241 43.9333L120.337 44.0293C120.401 44.1004 120.596 44.1716 120.924 44.2427C121.251 44.3138 121.677 44.3493 122.203 44.3493H123.249ZM119.067 49C118.456 49 118.011 48.8471 117.734 48.5413C117.457 48.2356 117.318 47.8196 117.318 47.2933C117.318 46.8596 117.332 46.4827 117.361 46.1627C117.396 45.8427 117.464 45.4942 117.563 45.1173C117.663 44.7333 117.823 44.3778 118.043 44.0507C118.271 43.7164 118.556 43.4107 118.897 43.1333C119.117 42.9556 119.512 42.6604 120.081 42.248C120.536 41.9209 120.906 41.6329 121.19 41.384C121.411 41.1991 121.585 41.0462 121.713 40.9253C121.848 40.7973 122.015 40.6018 122.214 40.3387C122.413 40.0756 122.566 39.8124 122.673 39.5493C122.78 39.2862 122.868 38.9484 122.939 38.536C123.018 38.1236 123.046 37.6791 123.025 37.2027C123.003 36.6764 122.897 36.1538 122.705 35.6347L126.012 34.472L126.737 37.7893H125.894C125.631 38.5787 125.396 39.1582 125.19 39.528C124.991 39.8907 124.554 40.4596 123.878 41.2347C124.326 41.9031 124.667 42.5787 124.902 43.2613C125.137 43.944 125.286 44.6551 125.35 45.3947V46.856C125.35 47.5316 125.165 48.0578 124.795 48.4347C124.433 48.8116 123.91 49 123.227 49H119.067ZM129.587 49L128.84 38.312C128.812 37.9636 128.865 37.6293 129 37.3093C129.142 36.9822 129.349 36.7049 129.619 36.4773L132.062 34.472L133.182 38.376L132.286 39.0373L132.072 47.112L129.587 49ZM140.984 37.928H140.664L139.256 36.52V36.2213L140.664 34.824H140.984L142.264 36.0507L143.502 34.824H143.822L145.283 36.2213V36.52L143.822 37.928H143.502L142.264 36.6907L140.984 37.928ZM141.262 44.0827C141.29 44.3458 141.39 44.5591 141.56 44.7227C141.738 44.8791 141.923 44.9822 142.115 45.032C142.307 45.0818 142.524 45.1102 142.766 45.1173C143.008 45.1173 143.175 45.1102 143.267 45.096C143.36 45.0818 143.434 45.0676 143.491 45.0533L143.118 42.792C143.075 42.5289 142.904 42.4151 142.606 42.4507C142.193 42.5076 141.852 42.6747 141.582 42.952C141.312 43.2293 141.205 43.6062 141.262 44.0827ZM146.851 49C146.41 49 146.016 48.936 145.667 48.808C145.319 48.68 145.034 48.5164 144.814 48.3173C144.593 48.1182 144.398 47.8693 144.227 47.5707C144.056 47.2649 143.928 46.9733 143.843 46.696C143.758 46.4187 143.68 46.1022 143.608 45.7467L141.976 48.424H141.88C141.824 48.424 141.742 48.4169 141.635 48.4027C141.528 48.3813 141.408 48.3564 141.272 48.328C141.137 48.2996 140.995 48.2533 140.846 48.1893C140.696 48.1182 140.547 48.0364 140.398 47.944C140.248 47.8516 140.106 47.7307 139.971 47.5813C139.836 47.4249 139.715 47.2507 139.608 47.0587C139.502 46.8667 139.416 46.632 139.352 46.3547C139.296 46.0773 139.267 45.7751 139.267 45.448L139.278 43.88C139.278 43.6169 139.303 43.3751 139.352 43.1547C139.409 42.9342 139.491 42.7422 139.598 42.5787C139.712 42.408 139.832 42.2551 139.96 42.12C140.088 41.9849 140.248 41.8676 140.44 41.768C140.632 41.6684 140.81 41.5831 140.974 41.512C141.144 41.4409 141.347 41.3804 141.582 41.3307C141.816 41.2738 142.019 41.2276 142.19 41.192C142.36 41.1564 142.57 41.1209 142.819 41.0853L142.627 39.912L145.048 38.088L145.987 43.6773C146.001 43.7698 146.033 43.8622 146.083 43.9547C146.247 44.2178 146.478 44.3493 146.776 44.3493H148.803V49H146.851ZM147.06 52.9893H146.74L145.332 51.5813V51.2827L146.74 49.8853H147.06L148.34 51.112L149.577 49.8853H149.897L151.359 51.2827V51.5813L149.897 52.9893H149.577L148.34 51.752L147.06 52.9893ZM149.556 49H147.316V44.3493H150.366C150.601 44.3493 150.772 44.3067 150.878 44.2213C150.985 44.136 151.039 44.0258 151.039 43.8907V42.6533H152.596L152.607 43.8907C152.607 43.9404 152.614 43.9938 152.628 44.0507C152.692 44.2498 152.813 44.3493 152.99 44.3493H156.329V49H155.006C154.366 49 153.794 48.8044 153.289 48.4133C152.791 48.0222 152.457 47.5244 152.286 46.92C152.116 47.5244 151.778 48.0222 151.273 48.4133C150.768 48.8044 150.196 49 149.556 49ZM164.544 49H154.816V44.3493H158.283L157.632 38.3333C157.603 38.0062 157.653 37.6898 157.781 37.384C157.909 37.0711 158.105 36.8116 158.368 36.6053L160.917 34.472L162.037 38.376L161.003 39.112V43.5493C161.066 43.4924 161.266 43.3111 161.6 43.0053C161.941 42.6996 162.19 42.4827 162.346 42.3547C162.503 42.2267 162.748 42.0276 163.082 41.7573C163.417 41.4871 163.701 41.2844 163.936 41.1493C164.178 41.0071 164.458 40.8542 164.778 40.6907C165.098 40.52 165.408 40.3991 165.707 40.328C166.012 40.2569 166.311 40.2213 166.602 40.2213C167.015 40.2213 167.378 40.2782 167.691 40.392C168.003 40.5058 168.249 40.6658 168.427 40.872C168.611 41.0711 168.757 41.2987 168.864 41.5547C168.978 41.8107 169.045 42.1022 169.066 42.4293C169.088 42.7493 169.088 43.0658 169.066 43.3787C169.045 43.6844 168.999 44.008 168.928 44.3493H172.81V49H170.891C170.265 49 169.703 48.8116 169.205 48.4347C168.715 48.0578 168.373 47.5671 168.181 46.9627C167.982 47.4249 167.744 47.8018 167.467 48.0933C167.189 48.3778 166.809 48.6018 166.325 48.7653C165.849 48.9218 165.255 49 164.544 49ZM166.795 44.3493L166.741 44.136C166.713 43.9938 166.656 43.8231 166.57 43.624C166.485 43.4249 166.382 43.2258 166.261 43.0267C166.14 42.8204 165.973 42.6462 165.76 42.504C165.554 42.3618 165.326 42.2907 165.077 42.2907C164.85 42.2907 164.583 42.3653 164.277 42.5147C163.978 42.664 163.705 42.8311 163.456 43.016C163.214 43.1938 162.962 43.4 162.699 43.6347C162.442 43.8693 162.268 44.0329 162.176 44.1253C162.083 44.2178 162.012 44.2924 161.963 44.3493H166.795ZM171.316 49V44.3493H180.009V49H171.316ZM179.335 52.9893L177.938 51.5813V51.2827L179.335 49.8853H179.655L181.117 51.2827V51.5813L179.655 52.9893H179.335ZM180.743 49H178.503V44.3493H181.554C181.789 44.3493 181.959 44.3067 182.066 44.2213C182.173 44.136 182.226 44.0258 182.226 43.8907V42.6533H183.783L183.794 43.8907C183.794 43.9404 183.801 43.9938 183.815 44.0507C183.879 44.2498 184 44.3493 184.178 44.3493H187.517V49H186.194C185.554 49 184.982 48.8044 184.477 48.4133C183.979 48.0222 183.645 47.5244 183.474 46.92C183.303 47.5244 182.966 48.0222 182.461 48.4133C181.956 48.8044 181.383 49 180.743 49ZM190.259 38.024H189.939L188.531 36.616V36.3173L189.939 34.92H190.259L191.539 36.1467L192.777 34.92H193.097L194.558 36.3173V36.616L193.097 38.024H192.777L191.539 36.7867L190.259 38.024ZM188.958 49H186.003V44.3493H188.062C187.799 43.1902 187.923 42.1058 188.435 41.096C188.514 40.9467 188.595 40.8009 188.681 40.6587C188.766 40.5164 188.894 40.3422 189.065 40.136C189.242 39.9298 189.424 39.752 189.609 39.6027C189.801 39.4533 190.035 39.3253 190.313 39.2187C190.597 39.1049 190.892 39.048 191.198 39.048C191.966 39.048 192.723 39.368 193.47 40.008C193.484 40.0151 193.495 40.0258 193.502 40.04C193.516 40.0542 193.527 40.0649 193.534 40.072C193.548 40.0791 193.562 40.0898 193.577 40.104C193.74 40.2391 193.865 40.3458 193.95 40.424C194.035 40.5022 194.146 40.6267 194.281 40.7973C194.423 40.9609 194.522 41.1138 194.579 41.256C194.636 41.3911 194.686 41.5724 194.729 41.8C194.778 42.0276 194.782 42.2587 194.739 42.4933C194.704 42.728 194.629 43.0053 194.515 43.3253C194.402 43.6453 194.242 43.9867 194.035 44.3493H198.046V49H195.347C194.707 49 194.135 48.8044 193.63 48.4133C193.132 48.0222 192.798 47.5244 192.627 46.92C192.179 47.5813 191.635 48.0933 190.995 48.456C190.355 48.8187 189.676 49 188.958 49ZM189.299 42.3653C189.299 42.5431 189.338 42.7351 189.417 42.9413C189.495 43.1476 189.584 43.3253 189.683 43.4747C189.783 43.6169 189.897 43.7627 190.025 43.912C190.153 44.0542 190.242 44.1502 190.291 44.2C190.341 44.2427 190.38 44.2782 190.409 44.3067L190.953 44.232C191.322 44.1822 191.692 44.0862 192.062 43.944C192.432 43.8018 192.617 43.6382 192.617 43.4533C192.617 43.0907 192.35 42.7209 191.817 42.344C191.283 41.96 190.761 41.768 190.249 41.768C189.616 41.768 189.299 41.9671 189.299 42.3653ZM196.535 49V44.3493H198.753C199.187 44.3493 199.464 44.2676 199.585 44.104C199.706 43.9333 199.713 43.6844 199.607 43.3573L198.06 38.6853C197.875 38.1093 198.007 37.6329 198.455 37.256L201.761 34.472L202.892 38.376L201.804 39.144V46.152C201.804 46.9342 201.527 47.6062 200.972 48.168C200.417 48.7227 199.749 49 198.967 49H196.535ZM205.337 49L204.59 38.312C204.562 37.9636 204.615 37.6293 204.75 37.3093C204.892 36.9822 205.099 36.7049 205.369 36.4773L207.812 34.472L208.932 38.376L208.036 39.0373L207.822 47.112L205.337 49ZM216.734 37.928H216.414L215.006 36.52V36.2213L216.414 34.824H216.734L218.014 36.0507L219.252 34.824H219.572L221.033 36.2213V36.52L219.572 37.928H219.252L218.014 36.6907L216.734 37.928ZM217.012 44.0827C217.04 44.3458 217.14 44.5591 217.31 44.7227C217.488 44.8791 217.673 44.9822 217.865 45.032C218.057 45.0818 218.274 45.1102 218.516 45.1173C218.758 45.1173 218.925 45.1102 219.017 45.096C219.11 45.0818 219.184 45.0676 219.241 45.0533L218.868 42.792C218.825 42.5289 218.654 42.4151 218.356 42.4507C217.943 42.5076 217.602 42.6747 217.332 42.952C217.062 43.2293 216.955 43.6062 217.012 44.0827ZM222.601 49C222.16 49 221.766 48.936 221.417 48.808C221.069 48.68 220.784 48.5164 220.564 48.3173C220.343 48.1182 220.148 47.8693 219.977 47.5707C219.806 47.2649 219.678 46.9733 219.593 46.696C219.508 46.4187 219.43 46.1022 219.358 45.7467L217.726 48.424H217.63C217.574 48.424 217.492 48.4169 217.385 48.4027C217.278 48.3813 217.158 48.3564 217.022 48.328C216.887 48.2996 216.745 48.2533 216.596 48.1893C216.446 48.1182 216.297 48.0364 216.148 47.944C215.998 47.8516 215.856 47.7307 215.721 47.5813C215.586 47.4249 215.465 47.2507 215.358 47.0587C215.252 46.8667 215.166 46.632 215.102 46.3547C215.046 46.0773 215.017 45.7751 215.017 45.448L215.028 43.88C215.028 43.6169 215.053 43.3751 215.102 43.1547C215.159 42.9342 215.241 42.7422 215.348 42.5787C215.462 42.408 215.582 42.2551 215.71 42.12C215.838 41.9849 215.998 41.8676 216.19 41.768C216.382 41.6684 216.56 41.5831 216.724 41.512C216.894 41.4409 217.097 41.3804 217.332 41.3307C217.566 41.2738 217.769 41.2276 217.94 41.192C218.11 41.1564 218.32 41.1209 218.569 41.0853L218.377 39.912L220.798 38.088L221.737 43.6773C221.751 43.7698 221.783 43.8622 221.833 43.9547C221.997 44.2178 222.228 44.3493 222.526 44.3493H224.553V49H222.601ZM234.085 46.9307L234.074 47.144C234.074 47.2862 234.045 47.4604 233.988 47.6667C233.932 47.8729 233.853 48.0791 233.754 48.2853C233.654 48.4844 233.491 48.6551 233.263 48.7973C233.036 48.9396 232.765 49.0107 232.453 49.0107C232.239 49.0107 232.04 48.9716 231.855 48.8933C231.677 48.8151 231.532 48.7191 231.418 48.6053C231.304 48.4916 231.201 48.3564 231.109 48.2C231.016 48.0364 230.948 47.8907 230.906 47.7627C230.863 47.6347 230.824 47.4996 230.788 47.3573C230.76 47.2151 230.742 47.1191 230.735 47.0693C230.728 47.0196 230.724 46.9804 230.724 46.952L230.703 47.1653C230.682 47.3076 230.636 47.4782 230.564 47.6773C230.493 47.8764 230.401 48.0791 230.287 48.2853C230.173 48.4844 230.003 48.6551 229.775 48.7973C229.548 48.9396 229.284 49.0107 228.986 49.0107C228.673 49.0107 228.403 48.936 228.175 48.7867C227.948 48.6373 227.784 48.4702 227.684 48.2853C227.585 48.1004 227.507 47.8907 227.45 47.656C227.393 47.4142 227.361 47.2471 227.354 47.1547C227.354 47.0622 227.354 46.9876 227.354 46.9307L227.332 47.0373C227.325 47.1156 227.297 47.2151 227.247 47.336C227.205 47.4569 227.148 47.592 227.076 47.7413C227.005 47.8907 226.899 48.04 226.757 48.1893C226.614 48.3316 226.451 48.4631 226.266 48.584C226.088 48.7049 225.857 48.8044 225.572 48.8827C225.288 48.9609 224.975 49 224.634 49H223.066V44.3493H225.796C226.031 44.3493 226.202 44.3102 226.309 44.232C226.415 44.1467 226.468 44.0364 226.468 43.9013V42.6533H228.026L228.015 42.8347C228.008 42.9484 228.015 43.0907 228.036 43.2613C228.058 43.4249 228.093 43.592 228.143 43.7627C228.2 43.9262 228.296 44.0684 228.431 44.1893C228.573 44.3031 228.748 44.36 228.954 44.36C229.174 44.36 229.359 44.2996 229.509 44.1787C229.658 44.0507 229.761 43.912 229.818 43.7627C229.875 43.6133 229.91 43.4427 229.924 43.2507C229.946 43.0516 229.953 42.9164 229.946 42.8453C229.946 42.7671 229.942 42.7031 229.935 42.6533H231.503L231.492 42.8347C231.485 42.9484 231.489 43.0907 231.503 43.2613C231.525 43.4249 231.56 43.592 231.61 43.7627C231.667 43.9262 231.763 44.0684 231.898 44.1893C232.04 44.3031 232.214 44.36 232.42 44.36C232.769 44.36 233.028 44.2142 233.199 43.9227C233.37 43.624 233.441 43.3502 233.412 43.1013C233.384 42.8453 233.38 42.696 233.402 42.6533H234.97V43.9013C234.977 44.1929 235.201 44.3422 235.642 44.3493H238.362V49H236.815C236.346 49 235.93 48.9253 235.567 48.776C235.212 48.6267 234.945 48.4631 234.767 48.2853C234.589 48.1004 234.44 47.8907 234.319 47.656C234.205 47.4142 234.138 47.2471 234.116 47.1547C234.102 47.0622 234.092 46.9876 234.085 46.9307ZM236.878 49V44.3493H254.094V49H236.878ZM252.341 52.9893H252.021L250.613 51.5813V51.2827L252.021 49.8853H252.341L253.621 51.112L254.858 49.8853H255.178L256.64 51.2827V51.5813L255.178 52.9893H254.858L253.621 51.752L252.341 52.9893ZM254.837 49H252.597V44.3493H255.648C255.882 44.3493 256.053 44.3067 256.16 44.2213C256.266 44.136 256.32 44.0258 256.32 43.8907V42.6533H257.877L257.888 43.8907C257.888 43.9404 257.895 43.9938 257.909 44.0507C257.973 44.2498 258.094 44.3493 258.272 44.3493H261.61V49H260.288C259.648 49 259.075 48.8044 258.57 48.4133C258.073 48.0222 257.738 47.5244 257.568 46.92C257.397 47.5244 257.059 48.0222 256.554 48.4133C256.05 48.8044 255.477 49 254.837 49ZM261.825 41.448L260.428 40.04V39.7413L261.825 38.344H262.145L263.606 39.7413V40.04L262.145 41.448H261.825ZM262.337 49H260.097V44.3493H263.148C263.382 44.3493 263.553 44.3067 263.66 44.2213C263.766 44.136 263.82 44.0258 263.82 43.8907V42.6533H265.377L265.388 43.8907C265.388 43.9404 265.395 43.9938 265.409 44.0507C265.473 44.2498 265.594 44.3493 265.772 44.3493H269.11V49H267.788C267.148 49 266.575 48.8044 266.07 48.4133C265.573 48.0222 265.238 47.5244 265.068 46.92C264.897 47.5244 264.559 48.0222 264.054 48.4133C263.55 48.8044 262.977 49 262.337 49ZM271.672 49H267.597V44.3493H270.989C271.458 44.3493 271.825 44.2818 272.088 44.1467C272.351 44.0116 272.482 43.7662 272.482 43.4107C272.482 43.1973 272.411 43.0124 272.269 42.856C272.127 42.6924 271.949 42.568 271.736 42.4827C271.53 42.3902 271.281 42.3156 270.989 42.2587C270.698 42.2018 270.431 42.1662 270.189 42.152C269.954 42.1307 269.706 42.12 269.442 42.12C269.179 42.12 269.002 42.1236 268.909 42.1307C268.817 42.1307 268.746 42.1342 268.696 42.1413L268.685 38.3227C268.685 38.0169 268.778 37.7396 268.962 37.4907C269.147 37.2418 269.386 37.0676 269.677 36.968L275.064 35.2507V38.4187L271.32 39.6133L271.501 39.6347C271.615 39.656 271.768 39.7022 271.96 39.7733C272.152 39.8373 272.362 39.9227 272.589 40.0293C272.817 40.1289 273.044 40.2782 273.272 40.4773C273.499 40.6764 273.709 40.904 273.901 41.16C274.093 41.416 274.246 41.7431 274.36 42.1413C274.481 42.5396 274.541 42.9769 274.541 43.4533V43.8693C274.541 43.9333 274.555 43.9973 274.584 44.0613C274.669 44.2533 274.811 44.3493 275.01 44.3493H278.573V49H276.792C276.152 49 275.579 48.808 275.074 48.424C274.577 48.04 274.242 47.5458 274.072 46.9413C273.944 47.5244 273.681 48.0151 273.282 48.4133C272.891 48.8044 272.354 49 271.672 49ZM277.066 49V44.3493H279.285C279.718 44.3493 279.996 44.2676 280.116 44.104C280.237 43.9333 280.244 43.6844 280.138 43.3573L278.591 38.6853C278.406 38.1093 278.538 37.6329 278.986 37.256L282.293 34.472L283.423 38.376L282.335 39.144V46.152C282.335 46.9342 282.058 47.6062 281.503 48.168C280.948 48.7227 280.28 49 279.498 49H277.066ZM285.868 49L285.122 38.312C285.093 37.9636 285.146 37.6293 285.281 37.3093C285.424 36.9822 285.63 36.7049 285.9 36.4773L288.343 34.472L289.463 38.376L288.567 39.0373L288.353 47.112L285.868 49Z" fill="black"/>
</svg>
